<?xml version="1.0" encoding="UTF-8"?>
<svg width="370.07" height="254.35" version="1.1" viewBox="0 0 370.07 254.35" xml:space="preserve" xmlns="http://www.w3.org/2000/svg" xmlns:cc="http://creativecommons.org/ns#" xmlns:dc="http://purl.org/dc/elements/1.1/" xmlns:rdf="http://www.w3.org/1999/02/22-rdf-syntax-ns#"><metadata><rdf:RDF><cc:Work rdf:about=""><dc:format>image/svg+xml</dc:format><dc:type rdf:resource="http://purl.org/dc/dcmitype/StillImage"/><dc:title/></cc:Work></rdf:RDF></metadata><g transform="matrix(1.3333 0 0 -1.3333 0 254.35)"><g transform="scale(.1)"><path d="m2775.5 0h-2775.5v1907.6h2775.5v-1907.6" fill="#fff"/><path d="m1752.5 1643s-313 185-731-22c-418-207-372-698-372-698s22-192 32-212c0 0-50 28-79 154-29 126 54 380 68 409s60 126 114 183c54 56 255 246 503 272 250 25 431-38 461-78 32-43 4-8 4-8" fill="#4958b1"/><path d="m1278.5 1699s-41-6-25-29c16-24 112-1 144-1s143-4 173-11c31-8 39 4 23 9-16 7-99 18-132 22-32 4-37 11-77 11-39-1-90 2-106-1" fill="#8a92d1"/><path d="m1049.5 1590s-102-48-144-99c-43-50-95-111-102-121-8-10-67-127-79-153s-36-125-43-185c-7-59.996-8-179 9-243 16-64 14-79 17-91s61-125 86-161c26-36 118-145 237-224 0 0 59-41 138-44s35 18 35 18-141 51-199 96c-58.002 45-135 99-205 235-70 135-58 62-82 185-25 122-31 258-10 320s64 155 80 183 72 123 149 179c77.002 56 128 96 124 100-4 5 5 7-11 5" fill="#8a92d1"/><path d="m1034.5 299s-26 9-13-7c12-16 46-58 120-70 74-13 26 26-2 36s-100 36-105 41" fill="#4958b1"/><path d="m1365.5 257c16.57 0 30-4.02 30-9 0-4.969-13.43-9-30-9s-30 4.031-30 9c0 4.98 13.43 9 30 9" fill="#8a92d1"/><path d="m755.9 531.11c-3.347-1.937-12.777 8.129-21.062 22.481-8.281 14.34-12.285 27.539-8.938 29.48 3.348 1.93 12.778-8.14 21.063-22.48 8.285-14.352 12.285-27.551 8.937-29.481" fill="#4958b1"/><path d="m1415.5 220s-65-9-44-26c21-18 55-22 113-21s152 15 181 32 136 44 161 78c26 33 9 59-16 50-26-9-172-77-235-88-63-9-116-26-160-25" fill="#4958b1"/><path d="m1722.5 338s91 61 96 65c5 6 35 4 19-19s-72-64-86-64c-16-1-65-3-29 18" fill="#8a92d1"/><path d="m1846.5 376s-29-19-21-26c9-7 42-7 76 16 33 23 119 104 176 185 58 80 54 113 62 123 7 9 0 79 15 99s19 116 20 118 11 29.004-2 32.004c-13 4-6-30.004-11-49.004-6-19 6-72-23-115s-26-69-38-86c-11-17-39-94-62-120-23-27-74-105-192-177" fill="#4958b1"/><path d="m1971.5 574s-14-32 6-32c19 0 61 24 103 124 43 99 61 226 58 268-4 42-32 50-41 7-9-44.004-16-147-56-224-41-80-53-122-70-143" fill="#8a92d1"/><path d="m2081.5 978s7 179-20 246c-26 66-80 169-160 252l-64 60s-6 18 20 7 94-96 106-105 61-73 76-91c16-19 26-44 32-63 7-19 34-95 35-112s23-76 18-114-9-76.996-24-85.996c-15-11-19 6-19 6" fill="#8a92d1"/><path d="m1944.5 1491s-18 28 2 35 52-46 55-56c3-9 52-77 59-84s3-23 6-29c3-7 34-90 36-93 3-4 26-53 20-58s-13 0-16 13c-4 13-35 85-41 101-7 16-48 84-59 97s-62 74-62 74" fill="#4958b1"/><g fill="#8a92d1"><path d="m1176.9 990.57v146.86h103.93v-27.53h-72.66v-31.04h71.12v-27.52h-71.12v-33.25h72.66v-27.524h-103.93"/><path d="m1305.3 990.57v146.86h103.93v-27.53h-72.66v-31.04h71.13v-27.52h-71.13v-33.25h72.66v-27.524h-103.93"/><path d="m1423.8 1011.3 16.95 23.78c10.36-10.78 26.43-19.82 46.68-19.82 17.18 0 25.55 7.93 25.55 16.3 0 25.98-84.55 8.15-84.55 63.41 0 24.45 21.13 44.7 55.7 44.7 23.34 0 42.72-7.04 57.25-20.48l-17.39-22.9c-11.89 11.02-27.75 16.07-42.72 16.07-13.43 0-20.92-5.93-20.92-14.74 0-23.34 84.33-7.71 84.33-62.54 0-26.86-19.15-47.114-58.79-47.114-28.18 0-48.44 9.465-62.09 23.334"/><path d="m1565.8 990.57v146.86h31.27v-146.86h-31.27"/></g><g fill="#100f0d"><path d="m772.47 866.63v55.055h36.074v-6.102h-29.227v-17.754h28.645v-6.109h-28.645v-18.981h29.227v-6.109h-36.074"/><path d="m820.45 874.97v26.082h-6.605v5.449h6.605v10.898h6.192v-10.898h8.086v-5.449h-8.086v-24.77c0-2.961 1.32-5.109 4.043-5.109 1.734 0 3.386 0.738 4.211 1.648l1.816-4.621c-1.566-1.5-3.801-2.558-7.426-2.558-5.867 0-8.836 3.379-8.836 9.328"/><path d="m870.48 866.63v26.25c0 7.019-3.632 9.082-8.996 9.082-4.789 0-9.414-2.973-11.804-6.191v-29.141h-6.192v55.055h6.192v-20.965c2.808 3.301 8.258 6.761 14.281 6.761 8.336 0 12.711-4.039 12.711-12.699v-28.152h-6.192"/><path d="m919.7 886.61c0 8.082-4.703 15.352-13.207 15.352-8.5 0-13.293-7.27-13.293-15.352 0-8.179 4.793-15.437 13.293-15.437 8.504 0 13.207 7.258 13.207 15.437zm-32.933 0c0 11.551 7.593 20.871 19.726 20.871s19.731-9.32 19.731-20.871c0-11.57-7.598-20.968-19.731-20.968s-19.726 9.398-19.726 20.968"/><path d="m932.85 871.91 3.218 4.449c2.641-3.039 7.68-5.687 13.125-5.687 6.11 0 9.414 2.887 9.414 6.848 0 9.66-24.683 3.71-24.683 18.492 0 6.187 5.367 11.468 14.859 11.468 6.766 0 11.559-2.55 14.774-5.769l-2.891-4.289c-2.391 2.887-6.766 5.039-11.883 5.039-5.449 0-8.832-2.731-8.832-6.281 0-8.75 24.68-2.969 24.68-18.489 0-6.691-5.363-12.05-15.684-12.05-6.523 0-12.054 1.968-16.097 6.269"/><path d="m996.28 866.63v55.055h36.073v-6.102h-29.22v-17.754h28.64v-6.109h-28.64v-18.981h29.22v-6.109h-36.073"/><path d="m1069.9 866.63v26.082c0 7.019-3.55 9.25-8.91 9.25-4.88 0-9.5-2.973-11.81-6.191v-29.141h-6.19v39.871h6.19v-5.781c2.81 3.301 8.26 6.761 14.2 6.761 8.33 0 12.71-4.199 12.71-12.871v-27.98h-6.19"/><path d="m1099.2 866.63-16.59 39.871h6.68l13.3-32.699 13.2 32.699h6.77l-16.59-39.871h-6.77"/><path d="m1129 866.63v39.871h6.19v-39.871zm-1.07 49.695c0 2.305 1.9 4.207 4.12 4.207 2.32 0 4.22-1.902 4.22-4.207 0-2.316-1.9-4.133-4.22-4.133-2.22 0-4.12 1.817-4.12 4.133"/><path d="m1147.6 866.63v39.871h6.2v-6.441c3.21 4.211 7.84 7.261 13.29 7.261v-6.359c-0.75 0.168-1.49 0.258-2.48 0.258-3.8 0-9-3.141-10.81-6.36v-28.23h-6.2"/><path d="m1205.4 886.61c0 8.082-4.7 15.352-13.21 15.352-8.5 0-13.29-7.27-13.29-15.352 0-8.179 4.79-15.437 13.29-15.437 8.51 0 13.21 7.258 13.21 15.437zm-32.93 0c0 11.551 7.59 20.871 19.72 20.871 12.14 0 19.73-9.32 19.73-20.871 0-11.57-7.59-20.968-19.73-20.968-12.13 0-19.72 9.398-19.72 20.968"/><path d="m1249 866.63v26.082c0 7.019-3.55 9.25-8.92 9.25-4.87 0-9.49-2.973-11.8-6.191v-29.141h-6.19v39.871h6.19v-5.781c2.81 3.301 8.26 6.761 14.2 6.761 8.33 0 12.71-4.199 12.71-12.871v-27.98h-6.19"/><path d="m1315.7 866.63v27.082c0 5.019-2.22 8.25-7.34 8.25-4.13 0-8.5-2.973-10.57-6.121v-29.211h-6.19v27.082c0 5.019-2.15 8.25-7.35 8.25-4.04 0-8.33-2.973-10.48-6.191v-29.141h-6.19v39.871h6.19v-5.781c1.65 2.562 7.02 6.761 12.88 6.761 6.11 0 9.57-3.3 10.73-7.421 2.23 3.632 7.59 7.421 13.37 7.421 7.27 0 11.15-4.039 11.15-12.05v-28.801h-6.2"/><path d="m1351.6 902.37c-8.5 0-12.71-7.18-13.04-13.293h26.17c-0.08 5.942-4.04 13.293-13.13 13.293zm-19.56-15.762c0 11.551 8.26 20.871 19.65 20.871 12.05 0 19.15-9.402 19.15-21.371v-1.57h-32.28c0.5-7.508 5.78-13.777 14.37-13.777 4.54 0 9.16 1.808 12.3 5.027l2.97-4.051c-3.96-3.957-9.33-6.097-15.85-6.097-11.81 0-20.31 8.5-20.31 20.968"/><path d="m1407.7 866.63v26.082c0 7.019-3.55 9.25-8.91 9.25-4.87 0-9.5-2.973-11.81-6.191v-29.141h-6.19v39.871h6.19v-5.781c2.81 3.301 8.26 6.761 14.2 6.761 8.33 0 12.71-4.199 12.71-12.871v-27.98h-6.19"/><path d="m1427.5 874.97v26.082h-6.6v5.449h6.6v10.898h6.19v-10.898h8.09v-5.449h-8.09v-24.77c0-2.961 1.32-5.109 4.04-5.109 1.74 0 3.39 0.738 4.21 1.648l1.82-4.621c-1.56-1.5-3.8-2.558-7.42-2.558-5.87 0-8.84 3.379-8.84 9.328"/><path d="m1475.5 875.04v7.512c-2.4 3.308-6.61 4.961-10.99 4.961-5.77 0-9.82-3.633-9.82-8.75 0-5.032 4.05-8.672 9.82-8.672 4.38 0 8.59 1.648 10.99 4.949zm0-8.41v4.543c-3.31-3.641-7.84-5.531-13.21-5.531-6.77 0-13.96 4.531-13.96 13.199 0 8.922 7.19 13.129 13.96 13.129 5.45 0 9.99-1.731 13.21-5.449v7.191c0 5.359-4.3 8.41-10.08 8.41-4.78 0-8.66-1.73-12.22-5.531l-2.89 4.289c4.3 4.473 9.42 6.601 15.94 6.601 8.42 0 15.44-3.789 15.44-13.449v-27.402h-6.19"/><path d="m1494.1 866.63v55.055h6.19v-55.055h-6.19"/><path d="m1530.9 874.39 4.05 5.187c3.63-4.039 9.57-7.84 17.34-7.84 9.82 0 12.95 5.293 12.95 9.492 0 14.2-32.6 6.36-32.6 26.008 0 9.086 8.08 15.278 18.9 15.278 8.42 0 14.94-2.813 19.56-7.676l-4.13-5.039c-4.12 4.539-9.9 6.601-15.92 6.601-6.61 0-11.31-3.547-11.31-8.75 0-12.382 32.6-5.281 32.6-25.843 0-8.008-5.44-16.168-20.31-16.168-9.57 0-16.59 3.621-21.13 8.75"/><path d="m1613 886.61c0 8.082-4.71 15.352-13.21 15.352s-13.29-7.27-13.29-15.352c0-8.179 4.79-15.437 13.29-15.437s13.21 7.258 13.21 15.437zm-32.94 0c0 11.551 7.6 20.871 19.73 20.871s19.73-9.32 19.73-20.871c0-11.57-7.6-20.968-19.73-20.968s-19.73 9.398-19.73 20.968"/><path d="m1629.6 866.63v55.055h6.19v-55.055h-6.19"/><path d="m1675.1 866.63v5.609c-3.06-3.468-8.25-6.597-14.2-6.597-8.34 0-12.72 4.039-12.72 12.699v28.16h6.2v-26.25c0-7.02 3.55-9.078 8.91-9.078 4.87 0 9.49 2.797 11.81 6.019v29.309h6.19v-39.871h-6.19"/><path d="m1695 874.97v26.082h-6.61v5.449h6.61v10.898h6.19v-10.898h8.09v-5.449h-8.09v-24.77c0-2.961 1.32-5.109 4.05-5.109 1.73 0 3.38 0.738 4.21 1.648l1.81-4.621c-1.57-1.5-3.8-2.558-7.43-2.558-5.86 0-8.83 3.379-8.83 9.328"/><path d="m1718 866.63v39.871h6.19v-39.871zm-1.07 49.695c0 2.305 1.9 4.207 4.13 4.207 2.31 0 4.21-1.902 4.21-4.207 0-2.316-1.9-4.133-4.21-4.133-2.23 0-4.13 1.817-4.13 4.133"/><path d="m1767.2 886.61c0 8.082-4.71 15.352-13.21 15.352s-13.3-7.27-13.3-15.352c0-8.179 4.8-15.437 13.3-15.437s13.21 7.258 13.21 15.437zm-32.94 0c0 11.551 7.6 20.871 19.73 20.871s19.73-9.32 19.73-20.871c0-11.57-7.6-20.968-19.73-20.968s-19.73 9.398-19.73 20.968"/><path d="m1810.7 866.63v26.082c0 7.019-3.55 9.25-8.91 9.25-4.88 0-9.49-2.973-11.81-6.191v-29.141h-6.19v39.871h6.19v-5.781c2.81 3.301 8.26 6.761 14.2 6.761 8.34 0 12.72-4.199 12.72-12.871v-27.98h-6.2"/><path d="m1825.9 871.91 3.21 4.449c2.65-3.039 7.69-5.687 13.13-5.687 6.11 0 9.41 2.887 9.41 6.848 0 9.66-24.67 3.71-24.67 18.492 0 6.187 5.36 11.468 14.85 11.468 6.77 0 11.56-2.55 14.77-5.769l-2.89-4.289c-2.39 2.887-6.76 5.039-11.88 5.039-5.45 0-8.83-2.731-8.83-6.281 0-8.75 24.68-2.969 24.68-18.489 0-6.691-5.36-12.05-15.69-12.05-6.52 0-12.05 1.968-16.09 6.269"/><path d="m1889.3 866.63v55.055h6.84v-55.055h-6.84"/><path d="m1935.7 866.63v26.082c0 7.019-3.56 9.25-8.92 9.25-4.87 0-9.49-2.973-11.81-6.191v-29.141h-6.19v39.871h6.19v-5.781c2.81 3.301 8.26 6.761 14.2 6.761 8.34 0 12.72-4.199 12.72-12.871v-27.98h-6.19"/><path d="m1952 886.61c0 11.789 8 20.871 19.9 20.871 7.26 0 11.55-2.96 14.61-6.929l-4.13-3.801c-2.64 3.641-6.03 5.211-10.15 5.211-8.51 0-13.79-6.531-13.79-15.352 0-8.839 5.28-15.437 13.79-15.437 4.12 0 7.51 1.648 10.15 5.187l4.13-3.789c-3.06-3.961-7.35-6.929-14.61-6.929-11.9 0-19.9 9.07-19.9 20.968"/><path d="m1993.9 870.34c0 2.48 2.07 4.539 4.54 4.539 2.48 0 4.54-2.059 4.54-4.539 0-2.469-2.06-4.539-4.54-4.539-2.47 0-4.54 2.07-4.54 4.539"/></g></g></g></svg>
