<?xml version="1.0" encoding="UTF-8" standalone="no"?>
<svg
   xmlns:dc="http://purl.org/dc/elements/1.1/"
   xmlns:cc="http://creativecommons.org/ns#"
   xmlns:rdf="http://www.w3.org/1999/02/22-rdf-syntax-ns#"
   xmlns:svg="http://www.w3.org/2000/svg"
   xmlns="http://www.w3.org/2000/svg"
   xmlns:sodipodi="http://sodipodi.sourceforge.net/DTD/sodipodi-0.dtd"
   xmlns:inkscape="http://www.inkscape.org/namespaces/inkscape"
   viewBox="0 0 370.06668 254.34666"
   height="254.34666"
   width="370.06668"
   xml:space="preserve"
   id="svg2"
   version="1.1"
   sodipodi:docname="white_logo_color_background.svg"
   inkscape:version="0.92.4 (5da689c313, 2019-01-14)"><sodipodi:namedview
     pagecolor="#ffffff"
     bordercolor="#666666"
     borderopacity="1"
     objecttolerance="10"
     gridtolerance="10"
     guidetolerance="10"
     inkscape:pageopacity="0"
     inkscape:pageshadow="2"
     inkscape:window-width="1920"
     inkscape:window-height="1001"
     id="namedview55"
     showgrid="false"
     inkscape:zoom="2.5909839"
     inkscape:cx="-11.897552"
     inkscape:cy="167.75332"
     inkscape:window-x="-32000"
     inkscape:window-y="-32000"
     inkscape:window-maximized="0"
     inkscape:current-layer="svg2" /><metadata
     id="metadata8"><rdf:RDF><cc:Work
         rdf:about=""><dc:format>image/svg+xml</dc:format><dc:type
           rdf:resource="http://purl.org/dc/dcmitype/StillImage" /></cc:Work></rdf:RDF></metadata><defs
     id="defs6" /><g
     transform="matrix(1.3333333,0,0,-1.3333333,-155.92533,219.61083)"
     id="g10"><g
       transform="scale(0.1)"
       id="g12"><path
         id="path14"
         style="fill:#100f0d;fill-opacity:1;fill-rule:nonzero;stroke:none"
         d="M 2775.49,0 H 0 V 1907.56 H 2775.49 V 0"
         inkscape:connector-curvature="0" /><path
         id="path16"
         style="fill:#ffffff;fill-opacity:1;fill-rule:nonzero;stroke:none"
         d="m 1752.49,1643 c 0,0 -313,185 -731,-22 C 603.488,1414 649.488,923.004 649.488,923.004 c 0,0 22,-192.004 32,-212.004 0,0 -50,28 -79,154 -29,126.004 54,380 68,409 14,29 60,126 114,183 54,56 255.002,246 503.002,272 250,25 431,-38 461,-78 32,-43 4,-8 4,-8"
         inkscape:connector-curvature="0" /><path
         id="path18"
         style="fill:#ffffff;fill-opacity:1;fill-rule:nonzero;stroke:none"
         d="m 1278.49,1699 c 0,0 -41,-6 -25,-29 16,-24 112,-1 144,-1 32,0 143,-4 173,-11 31,-8 39,4 23,9 -16,7 -99,18 -132,22 -32,4 -37,11 -77,11 -39,-1 -90,2 -106,-1"
         inkscape:connector-curvature="0" /><path
         id="path20"
         style="fill:#ffffff;fill-opacity:1;fill-rule:nonzero;stroke:none"
         d="m 1049.49,1590 c 0,0 -102.002,-48 -144.002,-99 -43,-50 -95,-111 -102,-121 -8,-10 -67,-127 -79,-153 -12,-26 -36,-125 -43,-185 -7,-59.996 -8,-179 9,-243 16,-64 14,-79 17,-91 3,-12 61,-125 86,-161 26,-36 118,-145 237.002,-224 0,0 59,-41 138,-44 79,-3 35,18 35,18 0,0 -141,51 -199,96 -58.002,45 -135.002,99 -205.002,235 -70,135 -58,62 -82,185 -25,122.004 -31,258 -10,320 21,62 64,155 80,183 16,28 72,123 149,179 77.002,56 128.002,96 124.002,100 -4,5 5,7 -11,5"
         inkscape:connector-curvature="0" /><path
         id="path22"
         style="fill:#ffffff;fill-opacity:1;fill-rule:nonzero;stroke:none"
         d="m 1034.49,299 c 0,0 -26,9 -13,-7 12,-16 46,-58 120,-70 74,-13 26,26 -2,36 -28,10 -100,36 -105,41"
         inkscape:connector-curvature="0" /><path
         id="path24"
         style="fill:#ffffff;fill-opacity:1;fill-rule:nonzero;stroke:none"
         d="m 1365.49,257 c 16.57,0 30,-4.02 30,-9 0,-4.969 -13.43,-9 -30,-9 -16.57,0 -30,4.031 -30,9 0,4.98 13.43,9 30,9"
         inkscape:connector-curvature="0" /><path
         id="path26"
         style="fill:#ffffff;fill-opacity:1;fill-rule:nonzero;stroke:none"
         d="m 755.898,531.109 c -3.347,-1.937 -12.777,8.129 -21.062,22.481 -8.281,14.34 -12.285,27.539 -8.938,29.48 3.348,1.93 12.778,-8.14 21.063,-22.48 8.285,-14.352 12.285,-27.551 8.937,-29.481"
         inkscape:connector-curvature="0" /><path
         id="path28"
         style="fill:#ffffff;fill-opacity:1;fill-rule:nonzero;stroke:none"
         d="m 1415.49,220 c 0,0 -65,-9 -44,-26 21,-18 55,-22 113,-21 58,1 152,15 181,32 29,17 136,44 161,78 26,33 9,59 -16,50 -26,-9 -172,-77 -235,-88 -63,-9 -116,-26 -160,-25"
         inkscape:connector-curvature="0" /><path
         id="path30"
         style="fill:#ffffff;fill-opacity:1;fill-rule:nonzero;stroke:none"
         d="m 1722.49,338 c 0,0 91,61 96,65 5,6 35,4 19,-19 -16,-23 -72,-64 -86,-64 -16,-1 -65,-3 -29,18"
         inkscape:connector-curvature="0" /><path
         id="path32"
         style="fill:#ffffff;fill-opacity:1;fill-rule:nonzero;stroke:none"
         d="m 1846.49,376 c 0,0 -29,-19 -21,-26 9,-7 42,-7 76,16 33,23 119,104 176,185 58,80 54,113 62,123 7,9 0,79 15,99 15,20 19,116 20,118 1,2 11,29.004 -2,32.004 -13,4 -6,-30.004 -11,-49.004 -6,-19 6,-72 -23,-115 -29,-43 -26,-69 -38,-86 -11,-17 -39,-94 -62,-120 -23,-27 -74,-105 -192,-177"
         inkscape:connector-curvature="0" /><path
         id="path34"
         style="fill:#ffffff;fill-opacity:1;fill-rule:nonzero;stroke:none"
         d="m 1971.49,574 c 0,0 -14,-32 6,-32 19,0 61,24 103,124 43,99 61,226 58,268.004 -4,42 -32,50 -41,7 -9,-44.004 -16,-147.004 -56,-224.004 -41,-80 -53,-122 -70,-143"
         inkscape:connector-curvature="0" /><path
         id="path36"
         style="fill:#ffffff;fill-opacity:1;fill-rule:nonzero;stroke:none"
         d="m 2081.49,978.004 c 0,0 7,178.996 -20,245.996 -26,66 -80,169 -160,252 l -64,60 c 0,0 -6,18 20,7 26,-11 94,-96 106,-105 12,-9 61,-73 76,-91 16,-19 26,-44 32,-63 7,-19 34,-95 35,-112 1,-17 23,-76 18,-114 -5,-38 -9,-76.996 -24,-85.996 -15,-11 -19,6 -19,6"
         inkscape:connector-curvature="0" /><path
         id="path38"
         style="fill:#ffffff;fill-opacity:1;fill-rule:nonzero;stroke:none"
         d="m 1944.49,1491 c 0,0 -18,28 2,35 20,7 52,-46 55,-56 3,-9 52,-77 59,-84 7,-7 3,-23 6,-29 3,-7 34,-90 36,-93 3,-4 26,-53 20,-58 -6,-5 -13,0 -16,13 -4,13 -35,85 -41,101 -7,16 -48,84 -59,97 -11,13 -62,74 -62,74"
         inkscape:connector-curvature="0" /><path
         id="path40"
         style="fill:#ffffff;fill-opacity:1;fill-rule:nonzero;stroke:none"
         d="m 1176.89,990.566 v 146.864 h 103.93 v -27.53 h -72.66 v -31.04 h 71.12 v -27.52 h -71.12 v -33.25 h 72.66 v -27.524 h -103.93"
         inkscape:connector-curvature="0" /><path
         id="path42"
         style="fill:#ffffff;fill-opacity:1;fill-rule:nonzero;stroke:none"
         d="m 1305.28,990.566 v 146.864 h 103.93 v -27.53 h -72.66 v -31.04 h 71.13 v -27.52 h -71.13 v -33.25 h 72.66 v -27.524 h -103.93"
         inkscape:connector-curvature="0" /><path
         id="path44"
         style="fill:#ffffff;fill-opacity:1;fill-rule:nonzero;stroke:none"
         d="m 1423.77,1011.26 16.95,23.78 c 10.36,-10.78 26.43,-19.82 46.68,-19.82 17.18,0 25.55,7.93 25.55,16.3 0,25.98 -84.55,8.15 -84.55,63.41 0,24.45 21.13,44.7 55.7,44.7 23.34,0 42.72,-7.04 57.25,-20.48 l -17.39,-22.9 c -11.89,11.02 -27.75,16.07 -42.72,16.07 -13.43,0 -20.92,-5.93 -20.92,-14.74 0,-23.34 84.33,-7.71 84.33,-62.54 0,-26.86 -19.15,-47.114 -58.79,-47.114 -28.18,0 -48.44,9.465 -62.09,23.334"
         inkscape:connector-curvature="0" /><path
         id="path46"
         style="fill:#ffffff;fill-opacity:1;fill-rule:nonzero;stroke:none"
         d="m 1565.82,990.566 v 146.864 h 31.27 V 990.566 h -31.27"
         inkscape:connector-curvature="0" /><path
         id="path48"
         style="fill:#ffffff;fill-opacity:1;fill-rule:nonzero;stroke:none"
         d="m 772.469,866.629 v 55.055 h 36.074 v -6.102 h -29.227 v -17.754 h 28.645 v -6.109 h -28.645 v -18.981 h 29.227 v -6.109 h -36.074"
         inkscape:connector-curvature="0" /><path
         id="path50"
         style="fill:#ffffff;fill-opacity:1;fill-rule:nonzero;stroke:none"
         d="m 820.449,874.969 v 26.082 h -6.605 v 5.449 h 6.605 v 10.898 h 6.192 V 906.5 h 8.086 v -5.449 h -8.086 v -24.77 c 0,-2.961 1.32,-5.109 4.043,-5.109 1.734,0 3.386,0.738 4.211,1.648 l 1.816,-4.621 c -1.566,-1.5 -3.801,-2.558 -7.426,-2.558 -5.867,0 -8.836,3.379 -8.836,9.328"
         inkscape:connector-curvature="0" /><path
         id="path52"
         style="fill:#ffffff;fill-opacity:1;fill-rule:nonzero;stroke:none"
         d="m 870.48,866.629 v 26.25 c 0,7.019 -3.632,9.082 -8.996,9.082 -4.789,0 -9.414,-2.973 -11.804,-6.191 v -29.141 h -6.192 v 55.055 h 6.192 v -20.965 c 2.808,3.301 8.258,6.761 14.281,6.761 8.336,0 12.711,-4.039 12.711,-12.699 v -28.152 h -6.192"
         inkscape:connector-curvature="0" /><path
         id="path54"
         style="fill:#ffffff;fill-opacity:1;fill-rule:nonzero;stroke:none"
         d="m 919.703,886.609 c 0,8.082 -4.703,15.352 -13.207,15.352 -8.5,0 -13.293,-7.27 -13.293,-15.352 0,-8.179 4.793,-15.437 13.293,-15.437 8.504,0 13.207,7.258 13.207,15.437 z m -32.933,0 c 0,11.551 7.593,20.871 19.726,20.871 12.133,0 19.731,-9.32 19.731,-20.871 0,-11.57 -7.598,-20.968 -19.731,-20.968 -12.133,0 -19.726,9.398 -19.726,20.968"
         inkscape:connector-curvature="0" /><path
         id="path56"
         style="fill:#ffffff;fill-opacity:1;fill-rule:nonzero;stroke:none"
         d="m 932.848,871.91 3.218,4.449 c 2.641,-3.039 7.68,-5.687 13.125,-5.687 6.11,0 9.414,2.887 9.414,6.848 0,9.66 -24.683,3.71 -24.683,18.492 0,6.187 5.367,11.468 14.859,11.468 6.766,0 11.559,-2.55 14.774,-5.769 l -2.891,-4.289 c -2.391,2.887 -6.766,5.039 -11.883,5.039 -5.449,0 -8.832,-2.731 -8.832,-6.281 0,-8.75 24.68,-2.969 24.68,-18.489 0,-6.691 -5.363,-12.05 -15.684,-12.05 -6.523,0 -12.054,1.968 -16.097,6.269"
         inkscape:connector-curvature="0" /><path
         id="path58"
         style="fill:#ffffff;fill-opacity:1;fill-rule:nonzero;stroke:none"
         d="m 996.277,866.629 v 55.055 h 36.073 v -6.102 h -29.22 v -17.754 h 28.64 v -6.109 h -28.64 v -18.981 h 29.22 v -6.109 h -36.073"
         inkscape:connector-curvature="0" /><path
         id="path60"
         style="fill:#ffffff;fill-opacity:1;fill-rule:nonzero;stroke:none"
         d="m 1069.93,866.629 v 26.082 c 0,7.019 -3.55,9.25 -8.91,9.25 -4.88,0 -9.5,-2.973 -11.81,-6.191 v -29.141 h -6.19 V 906.5 h 6.19 v -5.781 c 2.81,3.301 8.26,6.761 14.2,6.761 8.33,0 12.71,-4.199 12.71,-12.871 v -27.98 h -6.19"
         inkscape:connector-curvature="0" /><path
         id="path62"
         style="fill:#ffffff;fill-opacity:1;fill-rule:nonzero;stroke:none"
         d="m 1099.17,866.629 -16.59,39.871 h 6.68 l 13.3,-32.699 13.2,32.699 h 6.77 l -16.59,-39.871 h -6.77"
         inkscape:connector-curvature="0" /><path
         id="path64"
         style="fill:#ffffff;fill-opacity:1;fill-rule:nonzero;stroke:none"
         d="M 1128.99,866.629 V 906.5 h 6.19 v -39.871 z m -1.07,49.695 c 0,2.305 1.9,4.207 4.12,4.207 2.32,0 4.22,-1.902 4.22,-4.207 0,-2.316 -1.9,-4.133 -4.22,-4.133 -2.22,0 -4.12,1.817 -4.12,4.133"
         inkscape:connector-curvature="0" /><path
         id="path66"
         style="fill:#ffffff;fill-opacity:1;fill-rule:nonzero;stroke:none"
         d="M 1147.57,866.629 V 906.5 h 6.2 v -6.441 c 3.21,4.211 7.84,7.261 13.29,7.261 v -6.359 c -0.75,0.168 -1.49,0.258 -2.48,0.258 -3.8,0 -9,-3.141 -10.81,-6.36 v -28.23 h -6.2"
         inkscape:connector-curvature="0" /><path
         id="path68"
         style="fill:#ffffff;fill-opacity:1;fill-rule:nonzero;stroke:none"
         d="m 1205.45,886.609 c 0,8.082 -4.7,15.352 -13.21,15.352 -8.5,0 -13.29,-7.27 -13.29,-15.352 0,-8.179 4.79,-15.437 13.29,-15.437 8.51,0 13.21,7.258 13.21,15.437 z m -32.93,0 c 0,11.551 7.59,20.871 19.72,20.871 12.14,0 19.73,-9.32 19.73,-20.871 0,-11.57 -7.59,-20.968 -19.73,-20.968 -12.13,0 -19.72,9.398 -19.72,20.968"
         inkscape:connector-curvature="0" /><path
         id="path70"
         style="fill:#ffffff;fill-opacity:1;fill-rule:nonzero;stroke:none"
         d="m 1248.98,866.629 v 26.082 c 0,7.019 -3.55,9.25 -8.92,9.25 -4.87,0 -9.49,-2.973 -11.8,-6.191 v -29.141 h -6.19 V 906.5 h 6.19 v -5.781 c 2.81,3.301 8.26,6.761 14.2,6.761 8.33,0 12.71,-4.199 12.71,-12.871 v -27.98 h -6.19"
         inkscape:connector-curvature="0" /><path
         id="path72"
         style="fill:#ffffff;fill-opacity:1;fill-rule:nonzero;stroke:none"
         d="m 1315.69,866.629 v 27.082 c 0,5.019 -2.22,8.25 -7.34,8.25 -4.13,0 -8.5,-2.973 -10.57,-6.121 v -29.211 h -6.19 v 27.082 c 0,5.019 -2.15,8.25 -7.35,8.25 -4.04,0 -8.33,-2.973 -10.48,-6.191 v -29.141 h -6.19 V 906.5 h 6.19 v -5.781 c 1.65,2.562 7.02,6.761 12.88,6.761 6.11,0 9.57,-3.3 10.73,-7.421 2.23,3.632 7.59,7.421 13.37,7.421 7.27,0 11.15,-4.039 11.15,-12.05 v -28.801 h -6.2"
         inkscape:connector-curvature="0" /><path
         id="path74"
         style="fill:#ffffff;fill-opacity:1;fill-rule:nonzero;stroke:none"
         d="m 1351.55,902.371 c -8.5,0 -12.71,-7.18 -13.04,-13.293 h 26.17 c -0.08,5.942 -4.04,13.293 -13.13,13.293 z m -19.56,-15.762 c 0,11.551 8.26,20.871 19.65,20.871 12.05,0 19.15,-9.402 19.15,-21.371 v -1.57 h -32.28 c 0.5,-7.508 5.78,-13.777 14.37,-13.777 4.54,0 9.16,1.808 12.3,5.027 l 2.97,-4.051 c -3.96,-3.957 -9.33,-6.097 -15.85,-6.097 -11.81,0 -20.31,8.5 -20.31,20.968"
         inkscape:connector-curvature="0" /><path
         id="path76"
         style="fill:#ffffff;fill-opacity:1;fill-rule:nonzero;stroke:none"
         d="m 1407.71,866.629 v 26.082 c 0,7.019 -3.55,9.25 -8.91,9.25 -4.87,0 -9.5,-2.973 -11.81,-6.191 v -29.141 h -6.19 V 906.5 h 6.19 v -5.781 c 2.81,3.301 8.26,6.761 14.2,6.761 8.33,0 12.71,-4.199 12.71,-12.871 v -27.98 h -6.19"
         inkscape:connector-curvature="0" /><path
         id="path78"
         style="fill:#ffffff;fill-opacity:1;fill-rule:nonzero;stroke:none"
         d="m 1427.54,874.969 v 26.082 h -6.6 v 5.449 h 6.6 v 10.898 h 6.19 V 906.5 h 8.09 v -5.449 h -8.09 v -24.77 c 0,-2.961 1.32,-5.109 4.04,-5.109 1.74,0 3.39,0.738 4.21,1.648 l 1.82,-4.621 c -1.56,-1.5 -3.8,-2.558 -7.42,-2.558 -5.87,0 -8.84,3.379 -8.84,9.328"
         inkscape:connector-curvature="0" /><path
         id="path80"
         style="fill:#ffffff;fill-opacity:1;fill-rule:nonzero;stroke:none"
         d="m 1475.52,875.039 v 7.512 c -2.4,3.308 -6.61,4.961 -10.99,4.961 -5.77,0 -9.82,-3.633 -9.82,-8.75 0,-5.032 4.05,-8.672 9.82,-8.672 4.38,0 8.59,1.648 10.99,4.949 z m 0,-8.41 v 4.543 c -3.31,-3.641 -7.84,-5.531 -13.21,-5.531 -6.77,0 -13.96,4.531 -13.96,13.199 0,8.922 7.19,13.129 13.96,13.129 5.45,0 9.99,-1.731 13.21,-5.449 v 7.191 c 0,5.359 -4.3,8.41 -10.08,8.41 -4.78,0 -8.66,-1.73 -12.22,-5.531 l -2.89,4.289 c 4.3,4.473 9.42,6.601 15.94,6.601 8.42,0 15.44,-3.789 15.44,-13.449 v -27.402 h -6.19"
         inkscape:connector-curvature="0" /><path
         id="path82"
         style="fill:#ffffff;fill-opacity:1;fill-rule:nonzero;stroke:none"
         d="m 1494.11,866.629 v 55.055 h 6.19 v -55.055 h -6.19"
         inkscape:connector-curvature="0" /><path
         id="path84"
         style="fill:#ffffff;fill-opacity:1;fill-rule:nonzero;stroke:none"
         d="m 1530.94,874.391 4.05,5.187 c 3.63,-4.039 9.57,-7.84 17.34,-7.84 9.82,0 12.95,5.293 12.95,9.492 0,14.2 -32.6,6.36 -32.6,26.008 0,9.086 8.08,15.278 18.9,15.278 8.42,0 14.94,-2.813 19.56,-7.676 l -4.13,-5.039 c -4.12,4.539 -9.9,6.601 -15.92,6.601 -6.61,0 -11.31,-3.547 -11.31,-8.75 0,-12.382 32.6,-5.281 32.6,-25.843 0,-8.008 -5.44,-16.168 -20.31,-16.168 -9.57,0 -16.59,3.621 -21.13,8.75"
         inkscape:connector-curvature="0" /><path
         id="path86"
         style="fill:#ffffff;fill-opacity:1;fill-rule:nonzero;stroke:none"
         d="m 1613.02,886.609 c 0,8.082 -4.71,15.352 -13.21,15.352 -8.5,0 -13.29,-7.27 -13.29,-15.352 0,-8.179 4.79,-15.437 13.29,-15.437 8.5,0 13.21,7.258 13.21,15.437 z m -32.94,0 c 0,11.551 7.6,20.871 19.73,20.871 12.13,0 19.73,-9.32 19.73,-20.871 0,-11.57 -7.6,-20.968 -19.73,-20.968 -12.13,0 -19.73,9.398 -19.73,20.968"
         inkscape:connector-curvature="0" /><path
         id="path88"
         style="fill:#ffffff;fill-opacity:1;fill-rule:nonzero;stroke:none"
         d="m 1629.63,866.629 v 55.055 h 6.19 v -55.055 h -6.19"
         inkscape:connector-curvature="0" /><path
         id="path90"
         style="fill:#ffffff;fill-opacity:1;fill-rule:nonzero;stroke:none"
         d="m 1675.13,866.629 v 5.609 c -3.06,-3.468 -8.25,-6.597 -14.2,-6.597 -8.34,0 -12.72,4.039 -12.72,12.699 v 28.16 h 6.2 v -26.25 c 0,-7.02 3.55,-9.078 8.91,-9.078 4.87,0 9.49,2.797 11.81,6.019 V 906.5 h 6.19 v -39.871 h -6.19"
         inkscape:connector-curvature="0" /><path
         id="path92"
         style="fill:#ffffff;fill-opacity:1;fill-rule:nonzero;stroke:none"
         d="m 1694.96,874.969 v 26.082 h -6.61 v 5.449 h 6.61 v 10.898 h 6.19 V 906.5 h 8.09 v -5.449 h -8.09 v -24.77 c 0,-2.961 1.32,-5.109 4.05,-5.109 1.73,0 3.38,0.738 4.21,1.648 l 1.81,-4.621 c -1.57,-1.5 -3.8,-2.558 -7.43,-2.558 -5.86,0 -8.83,3.379 -8.83,9.328"
         inkscape:connector-curvature="0" /><path
         id="path94"
         style="fill:#ffffff;fill-opacity:1;fill-rule:nonzero;stroke:none"
         d="M 1718,866.629 V 906.5 h 6.19 v -39.871 z m -1.07,49.695 c 0,2.305 1.9,4.207 4.13,4.207 2.31,0 4.21,-1.902 4.21,-4.207 0,-2.316 -1.9,-4.133 -4.21,-4.133 -2.23,0 -4.13,1.817 -4.13,4.133"
         inkscape:connector-curvature="0" /><path
         id="path96"
         style="fill:#ffffff;fill-opacity:1;fill-rule:nonzero;stroke:none"
         d="m 1767.21,886.609 c 0,8.082 -4.71,15.352 -13.21,15.352 -8.5,0 -13.3,-7.27 -13.3,-15.352 0,-8.179 4.8,-15.437 13.3,-15.437 8.5,0 13.21,7.258 13.21,15.437 z m -32.94,0 c 0,11.551 7.6,20.871 19.73,20.871 12.13,0 19.73,-9.32 19.73,-20.871 0,-11.57 -7.6,-20.968 -19.73,-20.968 -12.13,0 -19.73,9.398 -19.73,20.968"
         inkscape:connector-curvature="0" /><path
         id="path98"
         style="fill:#ffffff;fill-opacity:1;fill-rule:nonzero;stroke:none"
         d="m 1810.73,866.629 v 26.082 c 0,7.019 -3.55,9.25 -8.91,9.25 -4.88,0 -9.49,-2.973 -11.81,-6.191 v -29.141 h -6.19 V 906.5 h 6.19 v -5.781 c 2.81,3.301 8.26,6.761 14.2,6.761 8.34,0 12.72,-4.199 12.72,-12.871 v -27.98 h -6.2"
         inkscape:connector-curvature="0" /><path
         id="path100"
         style="fill:#ffffff;fill-opacity:1;fill-rule:nonzero;stroke:none"
         d="m 1825.86,871.91 3.21,4.449 c 2.65,-3.039 7.69,-5.687 13.13,-5.687 6.11,0 9.41,2.887 9.41,6.848 0,9.66 -24.67,3.71 -24.67,18.492 0,6.187 5.36,11.468 14.85,11.468 6.77,0 11.56,-2.55 14.77,-5.769 l -2.89,-4.289 c -2.39,2.887 -6.76,5.039 -11.88,5.039 -5.45,0 -8.83,-2.731 -8.83,-6.281 0,-8.75 24.68,-2.969 24.68,-18.489 0,-6.691 -5.36,-12.05 -15.69,-12.05 -6.52,0 -12.05,1.968 -16.09,6.269"
         inkscape:connector-curvature="0" /><path
         id="path102"
         style="fill:#ffffff;fill-opacity:1;fill-rule:nonzero;stroke:none"
         d="m 1889.29,866.629 v 55.055 h 6.84 v -55.055 h -6.84"
         inkscape:connector-curvature="0" /><path
         id="path104"
         style="fill:#ffffff;fill-opacity:1;fill-rule:nonzero;stroke:none"
         d="m 1935.69,866.629 v 26.082 c 0,7.019 -3.56,9.25 -8.92,9.25 -4.87,0 -9.49,-2.973 -11.81,-6.191 v -29.141 h -6.19 V 906.5 h 6.19 v -5.781 c 2.81,3.301 8.26,6.761 14.2,6.761 8.34,0 12.72,-4.199 12.72,-12.871 v -27.98 h -6.19"
         inkscape:connector-curvature="0" /><path
         id="path106"
         style="fill:#ffffff;fill-opacity:1;fill-rule:nonzero;stroke:none"
         d="m 1951.97,886.609 c 0,11.789 8,20.871 19.9,20.871 7.26,0 11.55,-2.96 14.61,-6.929 l -4.13,-3.801 c -2.64,3.641 -6.03,5.211 -10.15,5.211 -8.51,0 -13.79,-6.531 -13.79,-15.352 0,-8.839 5.28,-15.437 13.79,-15.437 4.12,0 7.51,1.648 10.15,5.187 l 4.13,-3.789 c -3.06,-3.961 -7.35,-6.929 -14.61,-6.929 -11.9,0 -19.9,9.07 -19.9,20.968"
         inkscape:connector-curvature="0" /><path
         id="path108"
         style="fill:#ffffff;fill-opacity:1;fill-rule:nonzero;stroke:none"
         d="m 1993.92,870.34 c 0,2.48 2.07,4.539 4.54,4.539 2.48,0 4.54,-2.059 4.54,-4.539 0,-2.469 -2.06,-4.539 -4.54,-4.539 -2.47,0 -4.54,2.07 -4.54,4.539"
         inkscape:connector-curvature="0" /></g></g></svg>