<?xml version="1.0" encoding="UTF-8" standalone="no"?>
<svg
   xmlns:dc="http://purl.org/dc/elements/1.1/"
   xmlns:cc="http://creativecommons.org/ns#"
   xmlns:rdf="http://www.w3.org/1999/02/22-rdf-syntax-ns#"
   xmlns:svg="http://www.w3.org/2000/svg"
   xmlns="http://www.w3.org/2000/svg"
   viewBox="0 0 211.02667 208.24001"
   height="208.24001"
   width="211.02667"
   xml:space="preserve"
   id="svg2"
   version="1.1"><metadata
     id="metadata8"><rdf:RDF><cc:Work
         rdf:about=""><dc:format>image/svg+xml</dc:format><dc:type
           rdf:resource="http://purl.org/dc/dcmitype/StillImage" /></cc:Work></rdf:RDF></metadata><defs
     id="defs6" /><g
     transform="matrix(1.3333333,0,0,-1.3333333,0,208.24)"
     id="g10"><g
       transform="scale(0.1)"
       id="g12"><path
         id="path14"
         style="fill:#ffffff;fill-opacity:1;fill-rule:nonzero;stroke:none"
         d="m 1156.1,1470.14 c 0,0 -312.998,185 -730.998,-22 C 7.10156,1241.14 53.1016,750.145 53.1016,750.145 c 0,0 22,-192.004 32,-212.004 0,0 -50,28.004 -79.00004,154.004 -28.99996,126 54.00004,379.995 68.00004,408.995 14,29 60.0004,126 114.0004,183 54,56 255,246 503,272 250,25 430.998,-38 460.998,-78 32,-43 4,-8 4,-8" /><path
         id="path16"
         style="fill:#ffffff;fill-opacity:1;fill-rule:nonzero;stroke:none"
         d="m 682.102,1526.14 c 0,0 -41,-6 -25,-29 16,-24 112,-1 144,-1 32,0 143,-4 173,-11 30.998,-8 38.998,4 23,9 -16,7 -99,18 -132,22 -32,4 -37,11 -77,11 -39,-1 -90,2 -106,-1" /><path
         id="path18"
         style="fill:#ffffff;fill-opacity:1;fill-rule:nonzero;stroke:none"
         d="m 453.102,1417.14 c 0,0 -102,-48 -144,-99 -43,-50 -95,-111 -102,-121 -8,-10 -66.997,-127 -79,-153 -12,-26 -36.0004,-124.995 -43.0004,-184.995 -7,-60 -8,-179 9,-243 16.0004,-64.004 14.0004,-79.004 17.0004,-91.004 3,-12 61,-125 86,-161 26,-36 118,-145 237,-224 0,0 59,-41.0004 138,-44.0004 79,-3 35,18.0004 35,18.0004 0,0 -141,51 -199,96 -58,45 -135,99 -205,235 -70,135.004 -58,62 -82,185.004 -25.0004,122 -31.0004,258 -10,320 21,61.995 64,154.995 80,182.995 16,28 72,123 149,179 77,56 128.003,96 124.003,100 -4.003,5 4.997,7 -11.003,5" /><path
         id="path20"
         style="fill:#ffffff;fill-opacity:1;fill-rule:nonzero;stroke:none"
         d="m 438.102,126.141 c 0,0 -26,9 -13,-7 12,-16 46,-58.0004 120,-70.0004 74,-13 26,26 -2,36 -28,10 -100,36.0004 -105,41.0004" /><path
         id="path22"
         style="fill:#ffffff;fill-opacity:1;fill-rule:nonzero;stroke:none"
         d="m 769.102,84.1406 c 16.57,0 30,-4.0312 30,-9 0,-4.9687 -13.43,-9 -30,-9 -16.567,0 -30,4.0313 -30,9 0,4.9688 13.433,9 30,9" /><path
         id="path24"
         style="fill:#ffffff;fill-opacity:1;fill-rule:nonzero;stroke:none"
         d="m 159.512,358.238 c -3.348,-1.929 -12.778,8.141 -21.063,22.481 -8.285,14.351 -12.285,27.551 -8.937,29.48 3.347,1.942 12.777,-8.129 21.062,-22.48 8.285,-14.34 12.285,-27.539 8.938,-29.481" /><path
         id="path26"
         style="fill:#ffffff;fill-opacity:1;fill-rule:nonzero;stroke:none"
         d="m 819.102,47.1406 c 0,0 -65,-9 -44,-26 21,-17.99997 55,-21.999975 113,-20.999975 58,1.000005 151.998,14.999975 180.998,31.999975 29,17 136,44 161,78.0004 26,33 9,59 -16,50 -26,-9 -172,-77.0004 -234.998,-88.0004 -63,-9 -116,-26 -160,-25" /><path
         id="path28"
         style="fill:#ffffff;fill-opacity:1;fill-rule:nonzero;stroke:none"
         d="m 1126.1,165.141 c 0,0 91,61 96,65 5,6 35,4 19,-19 -16,-23 -72,-64 -86,-64 -16,-1 -65,-3 -29,18" /><path
         id="path30"
         style="fill:#ffffff;fill-opacity:1;fill-rule:nonzero;stroke:none"
         d="m 1250.1,203.141 c 0,0 -29,-19 -21,-26 9,-7 42,-7 76,16 33,23 119,104 176,185 58,80 54,113 62,123 7,9 0,79.004 15,99.004 15,20 19,116 20,118 1,2 11,29 -2,32 -13,4 -6,-30 -11,-49 -6,-19 6,-72 -23,-115 -29,-43.004 -26,-69.004 -38,-86.004 -11,-17 -39,-94 -62,-120 -23,-27 -74,-105 -192,-177" /><path
         id="path32"
         style="fill:#ffffff;fill-opacity:1;fill-rule:nonzero;stroke:none"
         d="m 1375.1,401.141 c 0,0 -14,-32 6,-32 19,0 61,24 103,124 43,99 61,226.004 58,268.004 -4,41.996 -32,50 -41,6.996 -9,-43.996 -16,-147 -56,-224 -41,-80 -53,-122 -70,-143" /><path
         id="path34"
         style="fill:#ffffff;fill-opacity:1;fill-rule:nonzero;stroke:none"
         d="m 1485.1,805.145 c 0,0 7,179 -20,245.995 -26,66 -80,169 -160,252 l -64,60 c 0,0 -6,18 20,7 26,-11 94,-96 106,-105 12,-9 61,-73 76,-91 16,-19 26,-44 32,-63 7,-19 34,-95 35,-111.995 1,-17 23,-76 18,-114 -5,-38 -9,-77 -24,-86 -15,-11 -19,6 -19,6" /><path
         id="path36"
         style="fill:#ffffff;fill-opacity:1;fill-rule:nonzero;stroke:none"
         d="m 1348.1,1318.14 c 0,0 -18,28 2,35 20,7 52,-46 55,-56 3,-9 52,-77 59,-84 7,-7 3,-23 6,-29 3,-7 34,-90 36,-93 3,-4 26,-53 20,-58 -6,-5 -13,0 -16,13 -4,13 -35,85 -41,101 -7,16 -48,84 -59,97 -11,13 -62,74 -62,74" /><path
         id="path38"
         style="fill:#ffffff;fill-opacity:1;fill-rule:nonzero;stroke:none"
         d="M 580.504,817.703 V 964.57 H 684.43 v -27.531 h -72.657 v -31.043 h 71.122 v -27.519 h -71.122 v -33.254 h 72.657 v -27.52 H 580.504" /><path
         id="path40"
         style="fill:#ffffff;fill-opacity:1;fill-rule:nonzero;stroke:none"
         d="M 708.898,817.703 V 964.57 h 103.926 v -27.531 h -72.66 v -31.043 h 71.125 v -27.519 h -71.125 v -33.254 h 72.66 v -27.52 H 708.898" /><path
         id="path42"
         style="fill:#ffffff;fill-opacity:1;fill-rule:nonzero;stroke:none"
         d="m 827.387,838.398 16.953,23.778 c 10.348,-10.781 26.426,-19.813 46.68,-19.813 17.175,0 25.543,7.93 25.543,16.297 0,25.977 -84.547,8.145 -84.547,63.41 0,24.442 21.129,44.696 55.703,44.696 23.34,0 42.715,-7.039 57.246,-20.477 L 927.57,923.387 c -11.882,11.015 -27.746,16.074 -42.715,16.074 -13.425,0 -20.917,-5.938 -20.917,-14.746 0,-23.34 84.328,-7.703 84.328,-62.539 0,-26.856 -19.153,-47.113 -58.789,-47.113 -28.188,0 -48.442,9.468 -62.09,23.335" /><path
         id="path44"
         style="fill:#ffffff;fill-opacity:1;fill-rule:nonzero;stroke:none"
         d="M 969.438,817.703 V 964.57 h 31.272 V 817.703 h -31.272" /><path
         id="path46"
         style="fill:#ffffff;fill-opacity:1;fill-rule:nonzero;stroke:none"
         d="m 176.082,693.766 v 55.054 h 36.074 v -6.101 h -29.222 v -17.754 h 28.64 v -6.106 h -28.64 v -18.98 h 29.222 v -6.113 h -36.074" /><path
         id="path48"
         style="fill:#ffffff;fill-opacity:1;fill-rule:nonzero;stroke:none"
         d="m 224.063,702.102 v 26.086 h -6.606 v 5.449 h 6.606 v 10.898 h 6.195 v -10.898 h 8.086 v -5.449 h -8.086 v -24.766 c 0,-2.969 1.316,-5.117 4.043,-5.117 1.73,0 3.383,0.742 4.207,1.652 l 1.816,-4.621 c -1.566,-1.492 -3.801,-2.559 -7.426,-2.559 -5.867,0 -8.835,3.379 -8.835,9.325" /><path
         id="path50"
         style="fill:#ffffff;fill-opacity:1;fill-rule:nonzero;stroke:none"
         d="m 274.094,693.766 v 26.25 c 0,7.019 -3.633,9.082 -8.992,9.082 -4.793,0 -9.418,-2.969 -11.809,-6.196 v -29.136 h -6.191 v 55.054 h 6.191 v -20.965 c 2.809,3.301 8.258,6.77 14.281,6.77 8.336,0 12.711,-4.043 12.711,-12.707 v -28.152 h -6.191" /><path
         id="path52"
         style="fill:#ffffff;fill-opacity:1;fill-rule:nonzero;stroke:none"
         d="m 323.316,713.742 c 0,8.09 -4.703,15.356 -13.207,15.356 -8.5,0 -13.293,-7.266 -13.293,-15.356 0,-8.172 4.793,-15.437 13.293,-15.437 8.504,0 13.207,7.265 13.207,15.437 z m -32.933,0 c 0,11.555 7.594,20.883 19.726,20.883 12.133,0 19.731,-9.328 19.731,-20.883 0,-11.558 -7.598,-20.965 -19.731,-20.965 -12.132,0 -19.726,9.407 -19.726,20.965" /><path
         id="path54"
         style="fill:#ffffff;fill-opacity:1;fill-rule:nonzero;stroke:none"
         d="m 336.461,699.047 3.219,4.453 c 2.64,-3.047 7.679,-5.691 13.125,-5.691 6.109,0 9.414,2.886 9.414,6.855 0,9.656 -24.684,3.711 -24.684,18.484 0,6.192 5.367,11.477 14.86,11.477 6.765,0 11.558,-2.562 14.777,-5.773 l -2.895,-4.297 c -2.39,2.89 -6.765,5.039 -11.882,5.039 -5.45,0 -8.832,-2.727 -8.832,-6.281 0,-8.75 24.679,-2.965 24.679,-18.485 0,-6.687 -5.363,-12.051 -15.683,-12.051 -6.524,0 -12.055,1.973 -16.098,6.27" /><path
         id="path56"
         style="fill:#ffffff;fill-opacity:1;fill-rule:nonzero;stroke:none"
         d="m 399.891,693.766 v 55.054 h 36.074 v -6.101 h -29.227 v -17.754 h 28.645 v -6.106 h -28.645 v -18.98 h 29.227 v -6.113 h -36.074" /><path
         id="path58"
         style="fill:#ffffff;fill-opacity:1;fill-rule:nonzero;stroke:none"
         d="m 473.543,693.766 v 26.082 c 0,7.019 -3.551,9.25 -8.91,9.25 -4.875,0 -9.5,-2.969 -11.809,-6.196 v -29.136 h -6.191 v 39.871 h 6.191 v -5.782 c 2.809,3.301 8.258,6.77 14.199,6.77 8.336,0 12.711,-4.211 12.711,-12.871 v -27.988 h -6.191" /><path
         id="path60"
         style="fill:#ffffff;fill-opacity:1;fill-rule:nonzero;stroke:none"
         d="m 502.785,693.766 -16.594,39.871 h 6.688 l 13.289,-32.696 13.211,32.696 h 6.766 l -16.59,-39.871 h -6.77" /><path
         id="path62"
         style="fill:#ffffff;fill-opacity:1;fill-rule:nonzero;stroke:none"
         d="m 532.605,693.766 v 39.871 h 6.192 v -39.871 z m -1.074,49.695 c 0,2.305 1.899,4.211 4.125,4.211 2.317,0 4.215,-1.906 4.215,-4.211 0,-2.316 -1.898,-4.129 -4.215,-4.129 -2.226,0 -4.125,1.813 -4.125,4.129" /><path
         id="path64"
         style="fill:#ffffff;fill-opacity:1;fill-rule:nonzero;stroke:none"
         d="m 551.188,693.766 v 39.871 h 6.191 v -6.438 c 3.219,4.211 7.844,7.258 13.293,7.258 v -6.355 c -0.742,0.164 -1.484,0.25 -2.477,0.25 -3.8,0 -9,-3.133 -10.816,-6.356 v -28.23 h -6.191" /><path
         id="path66"
         style="fill:#ffffff;fill-opacity:1;fill-rule:nonzero;stroke:none"
         d="m 609.063,713.742 c 0,8.09 -4.7,15.356 -13.208,15.356 -8.5,0 -13.289,-7.266 -13.289,-15.356 0,-8.172 4.789,-15.437 13.289,-15.437 8.508,0 13.208,7.265 13.208,15.437 z m -32.934,0 c 0,11.555 7.594,20.883 19.726,20.883 12.133,0 19.735,-9.328 19.735,-20.883 0,-11.558 -7.602,-20.965 -19.735,-20.965 -12.132,0 -19.726,9.407 -19.726,20.965" /><path
         id="path68"
         style="fill:#ffffff;fill-opacity:1;fill-rule:nonzero;stroke:none"
         d="m 652.59,693.766 v 26.082 c 0,7.019 -3.551,9.25 -8.91,9.25 -4.875,0 -9.496,-2.969 -11.809,-6.196 v -29.136 h -6.191 v 39.871 h 6.191 v -5.782 c 2.809,3.301 8.258,6.77 14.199,6.77 8.336,0 12.711,-4.211 12.711,-12.871 v -27.988 h -6.191" /><path
         id="path70"
         style="fill:#ffffff;fill-opacity:1;fill-rule:nonzero;stroke:none"
         d="m 719.309,693.766 v 27.078 c 0,5.031 -2.227,8.254 -7.344,8.254 -4.129,0 -8.504,-2.969 -10.567,-6.118 v -29.214 h -6.191 v 27.078 c 0,5.031 -2.148,8.254 -7.348,8.254 -4.043,0 -8.336,-2.969 -10.484,-6.196 v -29.136 h -6.191 v 39.871 h 6.191 v -5.782 c 1.648,2.559 7.016,6.77 12.875,6.77 6.109,0 9.574,-3.305 10.734,-7.426 2.231,3.625 7.59,7.426 13.371,7.426 7.266,0 11.145,-4.043 11.145,-12.055 v -28.804 h -6.191" /><path
         id="path72"
         style="fill:#ffffff;fill-opacity:1;fill-rule:nonzero;stroke:none"
         d="m 755.168,729.508 c -8.5,0 -12.711,-7.18 -13.043,-13.293 h 26.168 c -0.078,5.949 -4.043,13.293 -13.125,13.293 z m -19.563,-15.766 c 0,11.555 8.254,20.883 19.645,20.883 12.059,0 19.156,-9.406 19.156,-21.379 v -1.57 h -32.281 c 0.5,-7.512 5.781,-13.781 14.367,-13.781 4.539,0 9.16,1.816 12.297,5.031 l 2.977,-4.043 c -3.965,-3.965 -9.332,-6.106 -15.852,-6.106 -11.805,0 -20.309,8.496 -20.309,20.965" /><path
         id="path74"
         style="fill:#ffffff;fill-opacity:1;fill-rule:nonzero;stroke:none"
         d="m 811.32,693.766 v 26.082 c 0,7.019 -3.547,9.25 -8.906,9.25 -4.875,0 -9.504,-2.969 -11.809,-6.196 v -29.136 h -6.195 v 39.871 h 6.195 v -5.782 c 2.805,3.301 8.254,6.77 14.204,6.77 8.328,0 12.703,-4.211 12.703,-12.871 v -27.988 h -6.192" /><path
         id="path76"
         style="fill:#ffffff;fill-opacity:1;fill-rule:nonzero;stroke:none"
         d="m 831.152,702.102 v 26.086 h -6.597 v 5.449 h 6.597 v 10.898 h 6.196 v -10.898 h 8.086 v -5.449 h -8.086 v -24.766 c 0,-2.969 1.316,-5.117 4.043,-5.117 1.738,0 3.386,0.742 4.207,1.652 l 1.816,-4.621 c -1.562,-1.492 -3.801,-2.559 -7.422,-2.559 -5.871,0 -8.84,3.379 -8.84,9.325" /><path
         id="path78"
         style="fill:#ffffff;fill-opacity:1;fill-rule:nonzero;stroke:none"
         d="m 879.133,702.184 v 7.507 c -2.403,3.313 -6.613,4.961 -10.988,4.961 -5.77,0 -9.825,-3.632 -9.825,-8.75 0,-5.039 4.055,-8.672 9.825,-8.672 4.375,0 8.585,1.653 10.988,4.954 z m 0,-8.418 v 4.539 c -3.313,-3.633 -7.844,-5.528 -13.211,-5.528 -6.77,0 -13.957,4.532 -13.957,13.203 0,8.915 7.187,13.125 13.957,13.125 5.445,0 9.988,-1.726 13.211,-5.449 v 7.188 c 0,5.363 -4.297,8.418 -10.078,8.418 -4.785,0 -8.66,-1.739 -12.215,-5.535 l -2.895,4.293 c 4.297,4.464 9.414,6.605 15.942,6.605 8.418,0 15.437,-3.801 15.437,-13.457 v -27.402 h -6.191" /><path
         id="path80"
         style="fill:#ffffff;fill-opacity:1;fill-rule:nonzero;stroke:none"
         d="m 897.727,693.766 v 55.054 h 6.191 v -55.054 h -6.191" /><path
         id="path82"
         style="fill:#ffffff;fill-opacity:1;fill-rule:nonzero;stroke:none"
         d="m 934.555,701.527 4.05,5.196 c 3.633,-4.043 9.571,-7.84 17.333,-7.84 9.828,0 12.96,5.281 12.96,9.492 0,14.195 -32.609,6.355 -32.609,26.004 0,9.082 8.09,15.273 18.906,15.273 8.418,0 14.946,-2.812 19.563,-7.675 l -4.129,-5.039 c -4.121,4.539 -9.902,6.601 -15.93,6.601 -6.601,0 -11.308,-3.547 -11.308,-8.75 0,-12.383 32.605,-5.281 32.605,-25.84 0,-8.008 -5.445,-16.172 -20.308,-16.172 -9.575,0 -16.594,3.621 -21.133,8.75" /><path
         id="path84"
         style="fill:#ffffff;fill-opacity:1;fill-rule:nonzero;stroke:none"
         d="m 1016.63,713.742 c 0,8.09 -4.7,15.356 -13.21,15.356 -8.494,0 -13.291,-7.266 -13.291,-15.356 0,-8.172 4.797,-15.437 13.291,-15.437 8.51,0 13.21,7.265 13.21,15.437 z m -32.939,0 c 0,11.555 7.598,20.883 19.729,20.883 12.14,0 19.74,-9.328 19.74,-20.883 0,-11.558 -7.6,-20.965 -19.74,-20.965 -12.131,0 -19.729,9.407 -19.729,20.965" /><path
         id="path86"
         style="fill:#ffffff;fill-opacity:1;fill-rule:nonzero;stroke:none"
         d="m 1033.24,693.766 v 55.054 h 6.2 v -55.054 h -6.2" /><path
         id="path88"
         style="fill:#ffffff;fill-opacity:1;fill-rule:nonzero;stroke:none"
         d="m 1078.74,693.766 v 5.613 c -3.05,-3.465 -8.25,-6.602 -14.2,-6.602 -8.34,0 -12.71,4.043 -12.71,12.703 v 28.157 h 6.19 v -26.25 c 0,-7.024 3.55,-9.082 8.92,-9.082 4.87,0 9.49,2.8 11.8,6.027 v 29.305 h 6.19 v -39.871 h -6.19" /><path
         id="path90"
         style="fill:#ffffff;fill-opacity:1;fill-rule:nonzero;stroke:none"
         d="m 1098.58,702.102 v 26.086 h -6.62 v 5.449 h 6.62 v 10.898 h 6.19 v -10.898 h 8.08 v -5.449 h -8.08 v -24.766 c 0,-2.969 1.32,-5.117 4.04,-5.117 1.73,0 3.38,0.742 4.21,1.652 l 1.82,-4.621 c -1.58,-1.492 -3.8,-2.559 -7.44,-2.559 -5.86,0 -8.82,3.379 -8.82,9.325" /><path
         id="path92"
         style="fill:#ffffff;fill-opacity:1;fill-rule:nonzero;stroke:none"
         d="m 1121.61,693.766 v 39.871 h 6.19 v -39.871 z m -1.07,49.695 c 0,2.305 1.9,4.211 4.13,4.211 2.31,0 4.21,-1.906 4.21,-4.211 0,-2.316 -1.9,-4.129 -4.21,-4.129 -2.23,0 -4.13,1.813 -4.13,4.129" /><path
         id="path94"
         style="fill:#ffffff;fill-opacity:1;fill-rule:nonzero;stroke:none"
         d="m 1170.82,713.742 c 0,8.09 -4.7,15.356 -13.21,15.356 -8.5,0 -13.29,-7.266 -13.29,-15.356 0,-8.172 4.79,-15.437 13.29,-15.437 8.51,0 13.21,7.265 13.21,15.437 z m -32.94,0 c 0,11.555 7.6,20.883 19.73,20.883 12.14,0 19.74,-9.328 19.74,-20.883 0,-11.558 -7.6,-20.965 -19.74,-20.965 -12.13,0 -19.73,9.407 -19.73,20.965" /><path
         id="path96"
         style="fill:#ffffff;fill-opacity:1;fill-rule:nonzero;stroke:none"
         d="m 1214.35,693.766 v 26.082 c 0,7.019 -3.56,9.25 -8.92,9.25 -4.87,0 -9.49,-2.969 -11.81,-6.196 v -29.136 h -6.19 v 39.871 h 6.19 v -5.782 c 2.82,3.301 8.27,6.77 14.2,6.77 8.34,0 12.72,-4.211 12.72,-12.871 v -27.988 h -6.19" /><path
         id="path98"
         style="fill:#ffffff;fill-opacity:1;fill-rule:nonzero;stroke:none"
         d="m 1229.47,699.047 3.22,4.453 c 2.64,-3.047 7.68,-5.691 13.12,-5.691 6.12,0 9.42,2.886 9.42,6.855 0,9.656 -24.68,3.711 -24.68,18.484 0,6.192 5.36,11.477 14.85,11.477 6.77,0 11.56,-2.562 14.78,-5.773 l -2.89,-4.297 c -2.4,2.89 -6.77,5.039 -11.89,5.039 -5.45,0 -8.83,-2.727 -8.83,-6.281 0,-8.75 24.68,-2.965 24.68,-18.485 0,-6.687 -5.36,-12.051 -15.68,-12.051 -6.53,0 -12.05,1.973 -16.1,6.27" /><path
         id="path100"
         style="fill:#ffffff;fill-opacity:1;fill-rule:nonzero;stroke:none"
         d="m 1292.9,693.766 v 55.054 h 6.85 v -55.054 h -6.85" /><path
         id="path102"
         style="fill:#ffffff;fill-opacity:1;fill-rule:nonzero;stroke:none"
         d="m 1339.3,693.766 v 26.082 c 0,7.019 -3.56,9.25 -8.92,9.25 -4.87,0 -9.49,-2.969 -11.8,-6.196 v -29.136 h -6.2 v 39.871 h 6.2 v -5.782 c 2.81,3.301 8.26,6.77 14.2,6.77 8.34,0 12.71,-4.211 12.71,-12.871 v -27.988 h -6.19" /><path
         id="path104"
         style="fill:#ffffff;fill-opacity:1;fill-rule:nonzero;stroke:none"
         d="m 1355.59,713.742 c 0,11.801 8,20.883 19.89,20.883 7.27,0 11.55,-2.973 14.61,-6.937 l -4.13,-3.797 c -2.64,3.632 -6.03,5.207 -10.15,5.207 -8.5,0 -13.79,-6.528 -13.79,-15.356 0,-8.836 5.29,-15.437 13.79,-15.437 4.12,0 7.51,1.652 10.15,5.195 l 4.13,-3.789 c -3.06,-3.965 -7.34,-6.934 -14.61,-6.934 -11.89,0 -19.89,9.075 -19.89,20.965" /><path
         id="path106"
         style="fill:#ffffff;fill-opacity:1;fill-rule:nonzero;stroke:none"
         d="m 1397.53,697.477 c 0,2.48 2.07,4.539 4.54,4.539 2.48,0 4.54,-2.059 4.54,-4.539 0,-2.473 -2.06,-4.543 -4.54,-4.543 -2.47,0 -4.54,2.07 -4.54,4.543" /></g></g></svg>